<svg width="395" height="285" viewBox="0 0 395 285" fill="none" xmlns="http://www.w3.org/2000/svg">
<path fill-rule="evenodd" clip-rule="evenodd" d="M17.0156 1.25917C8.51241 4.06503 4.05078 7.4312 1.89613 12.6658C0.287767 16.5748 -0.271574 57.4766 0.12018 142.638L0.692576 266.907L34.1091 185.903C68.9404 101.47 72.5358 94.9513 87.3462 89.3571C91.4183 87.82 137.227 87.0439 223.916 87.0439H354.359V70.5249C354.359 55.1744 353.908 53.5545 347.997 47.6332L341.636 41.2607H262.14H182.647L154.375 22.7272C138.825 12.5328 123.531 3.21259 120.386 2.01569C114.693 -0.153565 23.3207 -0.820693 17.0156 1.25917ZM89.8382 111.638C85.6312 115.264 74.7797 139.028 49.7684 199.389C30.9055 244.918 16.119 282.911 16.9112 283.818C17.7034 284.725 87.2897 285.216 171.545 284.908L324.74 284.348L360.494 207.637C392.533 138.895 396.094 130.108 394.773 123.054C393.713 117.398 391.338 113.98 386.343 110.93C379.638 106.833 374.301 106.681 237.499 106.674L95.6101 106.665L89.8382 111.638Z" fill="black"/>
</svg>
